<?xml version="1.0" encoding="UTF-8"?>
<svg version="1.1" xmlns="http://www.w3.org/2000/svg" width="942" height="1953">
<path d="M0 0 C3.63178147 0.60409165 3.96340273 0.95393534 6.45092773 4.08496094 C7.37384366 5.4601028 8.28387425 6.84394565 9.18359375 8.234375 C9.92166008 9.34573067 9.92166008 9.34573067 10.67463684 10.47953796 C12.27417198 12.89540364 13.8562763 15.32211739 15.4375 17.75 C16.53227165 19.41454257 17.6276508 21.07868575 18.72363281 22.74243164 C72.00851384 103.83570475 113.0408188 192.26293927 129 311 C129.13136353 312.65491455 129.13136353 312.65491455 129.26538086 314.34326172 C130.08484378 325.85375515 130.20050778 337.33842617 130.1875 348.875 C130.18689575 349.86855499 130.1862915 350.86210999 130.18566895 351.88577271 C130.16019475 367.35031498 129.76449701 382.62193529 128 398 C127.87641113 399.12664062 127.75282227 400.25328125 127.62548828 401.4140625 C117.08159729 495.27386307 81.76484763 575.84528983 24.57128906 653.86376953 C22.90277256 656.1321846 21.2440394 658.40755697 19.5859375 660.68359375 C12.69543498 670.11729371 5.63856588 679.40232694 -1.56640625 688.59765625 C-4.37596723 692.18707844 -7.14084971 695.80798192 -9.89282227 699.44165039 C-15.40371663 706.71388787 -21.07935175 713.81800462 -26.91015625 720.83618164 C-30.50964877 725.17270833 -34.03977525 729.55168813 -37.5 734 C-42.23114648 740.0781172 -47.10881025 746.02722946 -52.01733398 751.96264648 C-55.68384643 756.39712075 -59.31102259 760.85818335 -62.890625 765.36328125 C-65.11850904 768.1481363 -67.36919246 770.91345116 -69.62280273 773.67749023 C-74.75746398 779.97544419 -79.83929788 786.30751181 -84.83740234 792.71435547 C-87.77357087 796.46794992 -90.76327388 800.17266772 -93.78442383 803.8581543 C-99.63897354 811.00103351 -105.27504685 818.26679413 -110.77734375 825.68359375 C-113.09477877 828.80279883 -115.44586981 831.89361577 -117.81640625 834.97265625 C-163.56072534 894.39694838 -210.21082467 967.62874523 -223 1043 C-223.19078125 1044.1034375 -223.3815625 1045.206875 -223.578125 1046.34375 C-226.00663586 1067.39084412 -224.06468074 1088.03474197 -210.55859375 1105.19140625 C-197.6397292 1120.65903714 -178.16222223 1128.35792571 -158.36669922 1130.25195312 C-155.41186368 1130.49119478 -152.45622675 1130.71614636 -149.5 1130.9375 C-128.48840078 1132.57747097 -110.73449524 1139.51320597 -96.671875 1155.67578125 C-81.64116719 1174.56641573 -73.96730367 1197.92859615 -76 1222 C-79.67974442 1244.65839837 -97.82215302 1261.96925171 -113.25 1277.4375 C-113.72158539 1277.91035431 -114.19317078 1278.38320862 -114.67904663 1278.87039185 C-119.720262 1283.91007283 -124.8299294 1288.7906568 -130.23486328 1293.43725586 C-132.93256829 1295.82563895 -135.38641511 1298.40195976 -137.8125 1301.0625 C-138.57324829 1301.89322021 -138.57324829 1301.89322021 -139.34936523 1302.74072266 C-144.91241156 1308.89539865 -149.99705617 1315.38756819 -155 1322 C-155.46825195 1322.61133789 -155.93650391 1323.22267578 -156.41894531 1323.85253906 C-173.44791188 1346.0525845 -173.44791188 1346.0525845 -177 1373 C-174.74411187 1383.13583069 -165.21937229 1389.63813939 -157.88964844 1396.26806641 C-149.42560216 1404.02568195 -140.66715988 1414.17380294 -139.76171875 1426.15234375 C-139.41739097 1443.7130607 -146.77124281 1456.76616174 -156.6875 1470.6875 C-166.97237555 1485.34477532 -171.39526714 1502.219902 -168.49609375 1520.109375 C-166.64019106 1527.78750957 -163.30345482 1534.96536848 -156.92578125 1539.92578125 C-154.41703482 1541.32518342 -151.86875929 1542.09193896 -149.125 1542.9375 C-143.37582184 1544.72392774 -139.44374737 1546.98162153 -135 1551 C-134.29488281 1551.61359375 -133.58976563 1552.2271875 -132.86328125 1552.859375 C-122.27718199 1562.68800468 -115.78113824 1574.96184311 -109.5625 1587.8125 C-109.05420654 1588.86179687 -108.54591309 1589.91109375 -108.0222168 1590.9921875 C-100.26228327 1607.46203804 -98.85331574 1622.23813478 -104 1640 C-107.12011181 1648.22574932 -110.87411014 1654.93705507 -119 1659 C-131.10115883 1660.42748254 -139.38140403 1657.4066583 -150 1652 C-161.81974334 1646.0381518 -173.09504772 1641.96619896 -186 1639 C-213.53381736 1632.60797999 -236.43648761 1626.14452863 -258 1607 C-258.825 1606.30648438 -259.65 1605.61296875 -260.5 1604.8984375 C-287.93931474 1581.31777639 -302.65693586 1546.36298748 -307 1511 C-307.15304041 1508.12736769 -307.18711682 1505.25916462 -307.203125 1502.3828125 C-307.21167511 1501.1596785 -307.21167511 1501.1596785 -307.22039795 1499.91183472 C-307.22980349 1498.18895748 -307.23636414 1496.46606262 -307.24023438 1494.74316406 C-307.24984343 1492.16697683 -307.28086841 1489.59162227 -307.3125 1487.015625 C-307.38299817 1476.0175144 -306.3558485 1465.7412194 -304 1455 C-303.70971924 1453.67524658 -303.70971924 1453.67524658 -303.41357422 1452.32373047 C-300.31421655 1439.3344187 -294.81796065 1427.91387777 -286.8125 1417.25 C-273.46225557 1399.45838267 -271.26602804 1376.02999038 -274.06640625 1354.546875 C-275.12790011 1347.63494162 -276.80496482 1340.85731073 -278.4375 1334.0625 C-282.6714872 1316.37002511 -285.253135 1299.90668668 -285.375 1281.6875 C-285.3871907 1280.61284485 -285.3871907 1280.61284485 -285.39962769 1279.51647949 C-285.57811327 1258.54005878 -281.05834543 1239.79921586 -266.375 1224.0625 C-255.91562341 1212.45141678 -255.21448529 1197.57565219 -255.8046875 1182.78125 C-256.28442919 1175.94972837 -257.92352377 1169.50409486 -260 1163 C-260.21962402 1162.30648438 -260.43924805 1161.61296875 -260.66552734 1160.8984375 C-264.99310939 1147.61861035 -271.28894224 1137.59172484 -280.88452148 1127.53369141 C-292.11118585 1115.66545765 -300.84755262 1102.09768193 -309 1088 C-309.5566333 1087.05157227 -309.5566333 1087.05157227 -310.12451172 1086.08398438 C-319.53721782 1069.92311876 -325.59825704 1052.12035008 -330 1034 C-330.23460937 1033.05640625 -330.46921875 1032.1128125 -330.7109375 1031.140625 C-346.27843147 958.49231981 -305.16607347 865.22909566 -273.60888672 801.26904297 C-272.1844739 798.37482634 -270.77784621 795.47298943 -269.37890625 792.56640625 C-263.45401851 780.35143088 -256.72471829 768.67239139 -249.78466797 757.00927734 C-248.03089709 754.05209816 -246.29583132 751.08475249 -244.56640625 748.11328125 C-238.81950352 738.25952756 -232.91394281 728.60034924 -226.47705078 719.18408203 C-224.71134965 716.57317917 -222.97839319 713.9417752 -221.24609375 711.30859375 C-213.98494654 700.28834549 -206.57402037 689.49437046 -198.5390625 679.02636719 C-195.60140872 675.15858064 -192.74566528 671.23009564 -189.875 667.3125 C-184.34946171 659.79410774 -178.73871256 652.3570853 -173 645 C-172.37327393 644.19199951 -172.37327393 644.19199951 -171.73388672 643.36767578 C-164.52095966 634.06914834 -157.07922028 624.97085348 -149.57470703 615.90673828 C-147.47508831 613.36440925 -145.39353488 610.80755092 -143.3125 608.25 C-134.88584603 597.94211885 -126.18497512 587.8619376 -117.51171875 577.76171875 C-116.01673505 576.0195026 -114.52365734 574.27567336 -113.03125 572.53125 C-93.69476993 549.93277321 -93.69476993 549.93277321 -86.25 541.75 C-83.26136747 538.45707034 -80.41616395 535.08683231 -77.625 531.625 C-74.38047483 527.61173716 -71.01252817 523.77584616 -67.5 520 C-63.29101211 515.4714247 -59.32557442 510.80024236 -55.44921875 505.984375 C-52.51352164 502.40722574 -49.48107632 498.92282274 -46.4375 495.4375 C-41.47268737 489.73592758 -36.65210188 483.96127745 -32 478 C-30.94162035 476.66128904 -29.88300478 475.32276458 -28.82421875 473.984375 C-7.98430136 447.53716215 10.09099666 420.07363656 21 388 C21.45584473 386.66727051 21.45584473 386.66727051 21.92089844 385.30761719 C51.1884997 298.25446381 41.81898991 199.65844167 0.65966797 4.20629883 C0 2 0 2 0 0 Z " fill="#E2E1E1" transform="translate(645,175)"/>
<path d="M0 0 C3.43083588 1.41426301 4.94610896 2.93591372 6.95751953 6.02807617 C7.5055423 6.86042282 8.05356506 7.69276947 8.61819458 8.55033875 C9.49168045 9.9079406 9.49168045 9.9079406 10.3828125 11.29296875 C11.30427567 12.70030022 11.30427567 12.70030022 12.24435425 14.13606262 C14.21342811 17.14753509 16.16944875 20.16723298 18.125 23.1875 C19.41839464 25.17179535 20.71265655 27.15552569 22.0078125 29.13867188 C24.52239743 32.99026565 27.03280987 36.84453044 29.54077148 40.70043945 C33.30950557 46.4858047 37.13445411 52.23237464 40.97460938 57.97045898 C86.90609294 126.67390397 129.53850284 200.58408869 144.25 282.875 C144.40122314 283.71651611 144.55244629 284.55803223 144.70825195 285.42504883 C147.6881883 303.11789504 148.37279324 320.64428365 148.3125 338.5625 C148.31034485 339.71462982 148.3081897 340.86675964 148.30596924 342.05380249 C148.25635177 358.57226136 147.89986415 374.70031435 145 391 C144.70198486 392.77117187 144.70198486 392.77117187 144.39794922 394.578125 C137.88966801 432.79904235 126.4148198 469.86571969 110 505 C109.60490234 505.85062012 109.20980469 506.70124023 108.80273438 507.57763672 C97.29371132 532.10730165 82.27864413 554.65322322 64.5078125 575.08984375 C62.11882139 577.86211536 59.83740296 580.69644842 57.5625 583.5625 C53.74965965 588.25838597 49.62005812 592.49631685 45.30761719 596.72412109 C41.92678509 600.04314837 38.77896187 603.47188199 35.703125 607.0703125 C30.58721675 612.86677735 24.96089018 618.09712989 19.09765625 623.12109375 C15.81551737 626.06096116 12.76045406 629.21899313 9.6875 632.375 C6.91495272 635.08306944 4.03289965 637.61096456 1.10546875 640.1484375 C-2.34270985 643.18078751 -5.66673208 646.34250988 -9 649.5 C-13.62600319 653.8820538 -18.30423447 658.17411627 -23.11572266 662.35205078 C-25.85375277 664.74667417 -28.52361795 667.21102888 -31.1875 669.6875 C-32.31628738 670.73450317 -33.44519713 671.78137442 -34.57421875 672.828125 C-35.4257251 673.61799805 -35.4257251 673.61799805 -36.29443359 674.42382812 C-37.94674354 675.9507839 -39.60656522 677.46903911 -41.26953125 678.984375 C-47.4951162 684.66876814 -53.54066196 690.48506869 -59.46337891 696.48486328 C-62.34096931 699.38711623 -65.25477248 702.1672204 -68.375 704.8125 C-71.5769634 707.53616181 -74.24060346 710.49520821 -76.953125 713.69921875 C-79.5220157 716.58676956 -82.24967824 719.28644499 -85 722 C-89.54998331 726.50615319 -93.85931642 731.11193162 -98 736 C-98.86882812 736.99128906 -99.73765625 737.98257813 -100.6328125 739.00390625 C-108.51640922 748.02161599 -115.84923827 757.39383053 -123 767 C-123.79857422 768.06710205 -123.79857422 768.06710205 -124.61328125 769.15576172 C-178.89662596 841.946293 -206.52888246 928.71223228 -221 1061 C-224.49603144 1059.57794911 -225.93192269 1058.04443927 -227.8828125 1054.84375 C-228.40496338 1053.99570801 -228.92711426 1053.14766602 -229.46508789 1052.27392578 C-230.28674438 1050.90083252 -230.28674438 1050.90083252 -231.125 1049.5 C-231.70048584 1048.55237793 -232.27597168 1047.60475586 -232.86889648 1046.62841797 C-237.68160403 1038.65063253 -242.31192598 1030.58429868 -246.72119141 1022.37695312 C-247.59784344 1020.74749833 -248.48065333 1019.12134583 -249.36865234 1017.49804688 C-296.43803323 931.33058238 -323.43224186 825.02756431 -295 720 C-294.77618652 719.22527344 -294.55237305 718.45054687 -294.32177734 717.65234375 C-283.29153332 680.28625945 -262.67352697 645.06779495 -236.265625 616.4765625 C-235.06542122 615.16461561 -233.87051506 613.84671775 -232.72306824 612.48838806 C-226.69984405 605.39388987 -220.05399961 598.90924876 -213.47265625 592.33984375 C-212.1564654 591.02297787 -210.8404229 589.7059637 -209.52452087 588.3888092 C-206.77683856 585.63965926 -204.0273731 582.89230881 -201.27661133 580.14624023 C-197.76877437 576.64409997 -194.26544693 573.13748849 -190.76345158 569.62950802 C-188.04992594 566.91235145 -185.33400155 564.19760257 -182.6173687 561.48355293 C-181.32538104 560.19222755 -180.03412245 558.90017228 -178.74363899 557.60734367 C-167.42976002 546.2774146 -167.42976002 546.2774146 -163.0546875 542.5546875 C-156.50015902 536.964366 -150.54675045 530.68989202 -144.46484375 524.59765625 C-143.05829696 523.19178434 -141.65160185 521.7860608 -140.24476624 520.38047791 C-137.30730236 517.44448232 -134.37163918 514.50670131 -131.43725586 511.56762695 C-127.6929794 507.81765377 -123.94423066 504.07218869 -120.19411373 500.32805729 C-117.2916656 497.42923828 -114.39162265 494.52802245 -111.49228096 491.62609673 C-110.11164105 490.24479405 -108.73026988 488.86422185 -107.34812737 487.48442268 C-98.03240092 478.23705508 -98.03240092 478.23705508 -89.25990295 468.48008728 C-87.45818295 466.36349342 -85.49388145 464.4343626 -83.5 462.5 C-80.15066271 459.19013302 -77.00074044 455.79253051 -73.9375 452.21875 C-72.0142366 450.0163032 -70.03954256 447.86742145 -68.05053711 445.72436523 C-63.29113312 440.5932729 -58.75464835 435.35153326 -54.3671875 429.89453125 C-52.19395665 427.23716482 -49.96605324 424.64462708 -47.70898438 422.05908203 C-41.27511954 414.67335208 -35.32243356 407.01088719 -29.54296875 399.10498047 C-27.97731075 396.96904641 -26.39569179 394.84561629 -24.8125 392.72265625 C29.83754974 318.91131382 51.14759094 232.26076345 37.73657227 141.59130859 C30.88631768 97.69200581 19.24387515 54.5056057 3.30175781 13.03564453 C2.86702148 11.89595215 2.43228516 10.75625977 1.984375 9.58203125 C1.59991211 8.59436768 1.21544922 7.6067041 0.81933594 6.58911133 C0 4 0 4 0 0 Z " fill="#F1F1F1" transform="translate(499,60)"/>
<path d="M0 0 C6.5623676 0.57984454 12.3069106 2.72715228 18.4375 5.0625 C19.50282959 5.465896 20.56815918 5.86929199 21.66577148 6.28491211 C29.76614131 9.40796837 37.52386131 12.91821837 45.16748047 17.02490234 C47.03732321 18.01985997 48.92342536 18.97567549 50.81640625 19.92578125 C67.58187115 28.43915925 82.3156646 40.17093557 96 53 C96.49371094 53.45971191 96.98742187 53.91942383 97.49609375 54.39306641 C111.39032531 67.43406741 122.47192454 82.53986963 132 99 C132.38639648 99.66435059 132.77279297 100.32870117 133.17089844 101.01318359 C145.40022215 122.31967926 153.02468672 146.03437886 157.75 170.0625 C158.04813599 171.56719849 158.04813599 171.56719849 158.35229492 173.10229492 C161.4390228 189.67377659 162.382757 206.17250896 162.3125 223 C162.30926727 224.40514862 162.30926727 224.40514862 162.30596924 225.83868408 C162.1685941 263.23886708 154.91546182 298.37243063 142.69921875 333.67578125 C132.33528815 363.71987704 127.05193959 394.21186101 124.3125 425.8125 C124.25156158 426.51028564 124.19062317 427.20807129 124.12783813 427.92700195 C122.39177278 448.15650875 121.79106324 468.38847715 121.8125 488.6875 C121.81310425 489.76237671 121.8137085 490.83725342 121.81433105 491.94470215 C121.86340035 524.53269628 123.6635144 556.86247111 126.67871094 589.30566406 C126.76569244 590.24490219 126.85267395 591.18414032 126.94229126 592.15184021 C127.10570079 593.90297898 127.27182802 595.65386726 127.44125366 597.4044342 C127.83794928 601.62216473 128.08785079 605.7571481 128 610 C124.87848767 609.40571044 123.02915283 608.47912631 120.6015625 606.4453125 C119.96468506 605.91873047 119.32780762 605.39214844 118.67163086 604.84960938 C117.65854858 603.99592773 117.65854858 603.99592773 116.625 603.125 C115.18188096 601.92861147 113.73785471 600.7333165 112.29296875 599.5390625 C111.20894775 598.6404248 111.20894775 598.6404248 110.10302734 597.72363281 C107.09297454 595.25660556 104.01692979 592.87933825 100.9375 590.5 C95.26000695 586.08642408 89.81354182 581.44222097 84.40527344 576.70410156 C80.72159099 573.47919275 76.99559984 570.328661 73.1875 567.25 C68.87539206 563.75954926 64.75613939 560.10504209 60.66186523 556.36303711 C58.14212414 554.1261689 55.55914586 552.02176194 52.921875 549.92578125 C47.23034648 545.28495241 41.92516756 540.33086825 36.72802734 535.15356445 C35.24884877 533.68635809 33.75193092 532.23894322 32.25390625 530.79101562 C24.06752809 522.74492123 17.49106232 513.90519023 14.625 502.625 C14.32851563 501.50351563 14.03203125 500.38203125 13.7265625 499.2265625 C-0.37424144 436.60686329 29.86217193 354.10945663 44.76953125 293.58984375 C44.92796635 292.94637812 45.08640144 292.30291248 45.2496376 291.63994789 C46.9402664 284.77790831 48.64384588 277.91932507 50.36816406 271.06567383 C54.30308689 255.35816705 57.90351074 239.80503977 59.1875 223.625 C59.26645508 222.65224121 59.34541016 221.67948242 59.42675781 220.67724609 C64.2778006 156.38517905 44.79539544 91.28815106 17 34 C16.50258301 32.97342285 16.00516602 31.9468457 15.49267578 30.88916016 C14.04716143 27.92085403 12.59024404 24.95861225 11.125 22 C10.69711182 21.13463623 10.26922363 20.26927246 9.82836914 19.37768555 C7.17310851 14.09550493 4.27246664 9.04120901 1.13232422 4.03125 C0 2 0 2 0 0 Z " fill="#CFCECE" transform="translate(578,1218)"/>
<path d="M0 0 C3.63178147 0.60409165 3.96340273 0.95393534 6.45092773 4.08496094 C7.37384366 5.4601028 8.28387425 6.84394565 9.18359375 8.234375 C9.92166008 9.34573067 9.92166008 9.34573067 10.67463684 10.47953796 C12.27417198 12.89540364 13.8562763 15.32211739 15.4375 17.75 C16.53227165 19.41454257 17.6276508 21.07868575 18.72363281 22.74243164 C72.00851384 103.83570475 113.0408188 192.26293927 129 311 C129.08902588 312.08442383 129.17805176 313.16884766 129.26977539 314.28613281 C130.15009175 326.35771326 130.11354319 338.40180061 130.0625 350.5 C130.05747084 352.595051 130.05291046 354.69010319 130.04882812 356.78515625 C130.03794422 361.85680062 130.02075912 366.92838683 130 372 C129.67 372 129.34 372 129 372 C128.98018066 370.8032666 128.96036133 369.6065332 128.93994141 368.37353516 C127.30274662 272.74216979 105.67458187 185.25109462 3 3 C2.34 3.66 1.68 4.32 1 5 C0.67 3.35 0.34 1.7 0 0 Z " fill="#575757" transform="translate(645,175)"/>
</svg>
